<?xml version="1.0" encoding="utf-8"?>
<!-- Generator: Adobe Illustrator 24.2.1, SVG Export Plug-In . SVG Version: 6.00 Build 0)  -->
<svg version="1.1" id="Ebene_1" xmlns="http://www.w3.org/2000/svg" xmlns:xlink="http://www.w3.org/1999/xlink" x="0px" y="0px"
	 viewBox="0 0 521.2 214.7" style="enable-background:new 0 0 521.2 214.7;" xml:space="preserve">
<style type="text/css">
	.st0{fill:#FFFFFF;}
</style>
<g>
	<g>
		<polygon points="182.3,51.3 198.2,51.3 188,102.1 172.1,102.1 176,82.4 164.6,82.4 160.6,102.1 144.7,102.1 152.4,64 139,64 
			131.4,102.1 115.5,102.1 123.1,64 86.8,64 85.4,71 108.3,71 106,82.4 83.1,82.4 81.7,89.4 104.7,89.4 102.1,102.1 63.3,102.1 
			73.5,51.3 170.9,51.3 166.8,71 178.3,71 		"/>
		<path d="M350.2,66h-2.6l-4.3,21.8h2.5c1.3,0,2-0.5,2.6-1.2c1.1-1.3,1.8-4.5,2.8-9.8c0.8-3.5,1.3-6.6,1.3-8.3
			c0-0.7-0.2-1.4-0.6-1.8C351.5,66.2,350.9,66,350.2,66z M470.3,51.3l-10.3,50.9H225.9l10.2-50.9H470.3z M266.7,67.1
			c0-1.6-0.5-2.9-1.2-3.6c-1.2-1.2-2.5-1.8-5-1.8c-2.5,0-4.1,0.8-5.4,2c-1.3,1.3-2.1,3.2-2.6,5.7c-0.2,1.2-0.3,2.2-0.3,3.3
			c0,2.1,0.8,3.5,3.1,4.7l2.8,1.3c1.4,0.6,2,1.4,2,2.6c0,0.8-0.1,1.7-0.3,2.6c-0.4,1.9-0.7,2.6-1.5,3.4c-0.6,0.5-1.3,0.8-2.3,0.8
			c-0.8,0-1.4-0.3-1.8-0.7c-0.3-0.4-0.5-0.9-0.5-1.6c0-0.6,0.1-1.2,0.3-2.1h-4.4c-0.2,1.2-0.3,2.1-0.3,3c0,1.5,0.5,2.8,1.3,3.6
			c1.1,1.2,2.5,1.8,5.1,1.8c2.8,0,4.5-0.6,5.8-2c1.3-1.3,2-2.8,2.7-6.1c0.3-1.5,0.4-2.8,0.4-3.9c0-2.4-1-3.7-3.8-5.1l-2.4-1.1
			c-1-0.5-1.6-1.2-1.6-2.4c0-0.6,0.1-1.4,0.2-2c0.2-1.3,0.6-2.3,1.3-3c0.5-0.5,1.2-0.7,2-0.7c0.8,0,1.3,0.3,1.5,0.6
			c0.3,0.4,0.5,0.9,0.5,1.6c0,0.6,0,1.2-0.2,2.2h4.4C266.6,68.9,266.7,67.9,266.7,67.1z M297.1,62h-13.9l-0.8,4h4.7l-5.1,25.8h4.4
			l5.1-25.8h4.7L297.1,62z M326.9,62h-4.4L318,84.7c-0.4,2.2-1.8,3.4-3.4,3.4c-1.5,0-2.3-0.8-2.3-2.3c0-0.4,0-0.9,0.1-1.3L317,62
			h-4.4l-4.4,22.1c-0.1,0.5-0.2,1.4-0.2,2.1c0,1.7,0.5,3,1.4,4c1.1,1.2,2.6,1.8,4.7,1.8c2.5,0,4.1-0.6,5.5-1.8
			c1.5-1.3,2.4-3,2.9-5.5L326.9,62z M356.9,68.5c0-1.7-0.3-2.9-1-4c-1-1.6-2.4-2.5-5.1-2.5h-7L338,91.7h7.4c2.5,0,4.3-0.7,5.9-2.2
			c2-1.9,2.7-4.6,4.3-12.7C356.4,72.9,356.9,69.9,356.9,68.5z M386.9,62h-11.9l-5.9,29.7H381l0.8-4h-7.4l1.8-9.1h6.4l0.8-3.9h-6.4
			l1.8-8.8h7.4L386.9,62z M417.8,62h-4.4L410,80l-3-18h-3.7l-5.9,29.7h4.4l3.6-18l3,18h3.5L417.8,62z M447.3,62h-13.9l-0.8,4h4.7
			l-5.1,25.8h4.4l5.1-25.8h4.7L447.3,62z M61.1,113.2h396.8l-10.3,50.9H50.9L61.1,113.2z M417.6,153.7h11.9l0.8-4h-7.4l1.8-9.1h6.4
			l0.8-3.9h-6.4l1.8-8.8h7.4l0.8-4h-11.9L417.6,153.7z M388,148.6c0,1.5,0.5,2.8,1.3,3.6c1.1,1.2,2.5,1.8,5.1,1.8
			c2.8,0,4.5-0.6,5.8-2c1.3-1.3,2-2.8,2.7-6.1c0.3-1.5,0.4-2.8,0.4-3.9c0-2.4-1-3.7-3.8-5.1l-2.4-1.1c-1-0.5-1.6-1.2-1.6-2.4
			c0-0.6,0.1-1.4,0.2-2c0.2-1.3,0.6-2.3,1.3-3c0.5-0.5,1.2-0.7,2-0.7c0.8,0,1.3,0.3,1.5,0.6c0.3,0.4,0.5,0.9,0.5,1.6
			c0,0.6,0,1.2-0.3,2.2h4.4c0.2-1.2,0.3-2.2,0.3-3c0-1.6-0.5-2.9-1.2-3.6c-1.2-1.2-2.5-1.8-5-1.8c-2.5,0-4.1,0.8-5.4,2
			c-1.3,1.3-2.1,3.2-2.6,5.7c-0.2,1.2-0.3,2.2-0.3,3.3c0,2.1,0.8,3.5,3.1,4.7l2.8,1.3c1.4,0.6,2,1.4,2,2.6c0,0.8-0.1,1.7-0.3,2.6
			c-0.4,1.9-0.7,2.6-1.5,3.4c-0.6,0.5-1.3,0.8-2.3,0.8c-0.8,0-1.4-0.3-1.8-0.7c-0.3-0.4-0.5-0.9-0.5-1.6c0-0.6,0.1-1.2,0.2-2.1h-4.4
			C388.1,146.8,388,147.7,388,148.6z M357.6,148.2c0,1.7,0.5,3,1.4,4c1.1,1.2,2.6,1.8,4.7,1.8c2.5,0,4.1-0.6,5.5-1.8
			c1.5-1.3,2.4-3,2.9-5.5l4.5-22.7h-4.4l-4.5,22.7c-0.4,2.2-1.8,3.4-3.4,3.4c-1.5,0-2.3-0.8-2.3-2.3c0-0.4,0-0.9,0.1-1.3l4.5-22.5
			h-4.4l-4.4,22.1C357.7,146.6,357.6,147.5,357.6,148.2z M326.7,147.6c0,1.8,0.2,2.8,1,4c0.9,1.5,2.5,2.5,5.3,2.5
			c2.4,0,4.1-0.6,5.5-2c2-1.9,2.8-4.1,4.6-13.1c0.8-4,1.3-6.9,1.3-8.8c0-1.8-0.2-2.8-1-4c-0.9-1.5-2.5-2.5-5.2-2.5
			c-2.4,0-4,0.6-5.5,2c-1.9,1.9-2.7,4.1-4.6,13.1C327.2,142.9,326.7,145.8,326.7,147.6z M294.2,153.7h4.4l2.6-13.1h5.6l-2.6,13.1
			h4.4l5.9-29.7h-4.4l-2.5,12.6H302l2.5-12.6h-4.4L294.2,153.7z M260,128l-5.1,25.8h4.4l5.1-25.8h4.7l0.8-4h-13.9l-0.8,4H260z
			 M222.4,147.6c0,1.8,0.3,2.9,1,4.1c1,1.5,2.5,2.4,5.1,2.4c2.5,0,4-0.6,5.3-1.7c1.7-1.5,2.6-3.4,3.3-6.4h-4.5
			c-0.3,1.3-0.7,2.3-1.4,3c-0.5,0.7-1.3,1.1-2.3,1.1c-1.5,0-2.1-0.9-2.1-2.5c0-1.8,0.5-4.9,1.3-8.7c1.5-7.3,2-9.1,3.2-10.4
			c0.5-0.6,1.2-0.9,2.1-0.9c1.6,0,2.1,1.1,2.1,2.4c0,0.5,0,1-0.1,1.7h4.4c0.1-0.7,0.1-1.3,0.1-1.9c0-1.5-0.5-3.2-1.3-4.2
			c-1-1.3-2.8-2-4.9-2c-2.4,0-4.1,0.7-5.5,2.1c-1.9,1.8-2.8,4.1-4.6,13.1C222.9,142.9,222.4,145.8,222.4,147.6z M193.3,153.7h11.9
			l0.8-4h-7.4l1.8-9.1h6.4l0.8-3.9h-6.4l1.8-8.8h7.4l0.8-4h-11.9L193.3,153.7z M164,151.3c1,1.7,2.8,2.8,5.6,2.8
			c2.1,0,3.9-0.5,5.6-2.1c1.2-1.1,2.1-3,2.7-6.1l4.4-21.9h-4.4l-4.3,21.8c-0.6,2.8-1.9,4.3-3.8,4.3c-1,0-1.7-0.4-2.3-1.3L164,151.3z
			 M136.8,147.6c0,1.8,0.3,2.8,1,4c0.9,1.5,2.5,2.5,5.3,2.5c2.4,0,4-0.6,5.5-2c2-1.9,2.8-4.1,4.6-13.1c0.8-4,1.3-6.9,1.3-8.8
			c0-1.8-0.2-2.8-1-4c-0.9-1.5-2.5-2.5-5.2-2.5c-2.4,0-4,0.6-5.5,2c-1.9,1.9-2.7,4.1-4.6,13.1C137.3,142.9,136.8,145.8,136.8,147.6z
			 M104.5,153.7h4.4l2.5-12.3h2.6l1.3,12.3h4.4l-1.6-13.1c2.4-1.1,3.8-2.7,4.9-7.8c0.2-1.3,0.4-2.4,0.4-3.4c0-3.2-1.7-5.4-6-5.4h-7
			L104.5,153.7z M73.9,153.7h4.4l2.3-11.6h3c4.5,0,7.3-1.8,8.8-9.1c0.3-1.3,0.3-2.4,0.3-3.5c0-1.6-0.4-3-1.4-4
			c-1.1-1.1-2.5-1.5-4.8-1.5h-6.7L73.9,153.7z M333.3,150.1c0.8,0,1.5-0.3,2.1-0.9c1.1-1.1,1.7-3,3.2-10.4c0.8-3.8,1.3-6.9,1.3-8.6
			c0-1.5-0.5-2.6-2.2-2.6c-0.8,0-1.5,0.3-2.1,0.9c-1.1,1.1-1.7,3-3.2,10.4c-0.7,3.8-1.3,6.9-1.3,8.6
			C331.1,149,331.7,150.1,333.3,150.1z M87.9,133.1c0.2-0.8,0.3-1.8,0.3-2.6c0-1.7-0.7-2.5-2.5-2.5h-2.3l-2,10.2h2.4
			C86.1,138.2,87.2,136.8,87.9,133.1z M143.4,150.1c0.8,0,1.5-0.3,2.1-0.9c1.1-1.1,1.7-3,3.2-10.4c0.7-3.8,1.3-6.9,1.3-8.6
			c0-1.5-0.5-2.6-2.2-2.6c-0.8,0-1.5,0.3-2.1,0.9c-1.1,1.1-1.7,3-3.2,10.4c-0.8,3.8-1.3,6.9-1.3,8.6
			C141.2,149,141.8,150.1,143.4,150.1z M118.6,132.8c0.2-0.9,0.3-1.7,0.3-2.4c0-1.5-0.5-2.4-2.3-2.4h-2.5l-1.9,9.6h2.7
			C117,137.6,118,135.8,118.6,132.8z"/>
	</g>
</g>
</svg>
